<svg width="2110.70263671875px" height="347.63222656249997px" xmlns="http://www.w3.org/2000/svg" viewBox="-805.351318359375 -98.81611328124998 2110.70263671875 347.63222656249997" style="background: rgb(34, 37, 41);" preserveAspectRatio="xMidYMid"><defs><linearGradient id="editing-gradient-gradient" x1="0" x2="1" y1="0.5" y2="0.5" gradientUnits="objectBoundingBox"><stop offset="0" stop-color="#fb797f"></stop><stop offset="1" stop-color="#fff36a"></stop></linearGradient></defs><g><g transform="translate(-515.8700439929962, 150)"><path d="M92.77-120.02L92.77 0L72.75 0L72.75-120.02L1.95-120.02L1.95-140.04L163.57-140.04L163.57-120.02L92.77-120.02ZM301.56-54.98L301.56-54.98L301.56-54.98Q301.56-43.65 297.27-33.69L297.27-33.69L297.27-33.69Q292.97-23.73 285.60-16.26L285.60-16.26L285.60-16.26Q278.22-8.79 268.26-4.44L268.26-4.44L268.26-4.44Q258.30-0.10 246.97 0L246.97 0L216.21 0L216.21 0Q204.88-0.10 194.92-4.44L194.92-4.44L194.92-4.44Q184.96-8.79 177.59-16.26L177.59-16.26L177.59-16.26Q170.21-23.73 165.92-33.69L165.92-33.69L165.92-33.69Q161.62-43.65 161.62-54.98L161.62-54.98L161.62-54.98Q161.62-66.31 165.92-76.32L165.92-76.32L165.92-76.32Q170.21-86.33 177.59-93.80L177.59-93.80L177.59-93.80Q184.96-101.27 194.92-105.62L194.92-105.62L194.92-105.62Q204.88-109.96 216.21-109.96L216.21-109.96L246.97-109.96L246.97-109.96Q254.49-109.96 261.52-108.01L261.52-108.01L261.52-108.01Q268.55-106.05 274.61-102.44L274.61-102.44L274.61-102.44Q280.66-98.83 285.64-93.80L285.64-93.80L285.64-93.80Q290.63-88.77 294.14-82.67L294.14-82.67L294.14-82.67Q297.66-76.56 299.61-69.53L299.61-69.53L299.61-69.53Q301.56-62.50 301.56-54.98ZM281.64-54.98L281.64-54.98L281.64-54.98Q281.64-62.21 278.91-68.55L278.91-68.55L278.91-68.55Q276.17-74.90 271.48-79.64L271.48-79.64L271.48-79.64Q266.80-84.38 260.50-87.16L260.50-87.16L260.50-87.16Q254.20-89.94 246.97-90.04L246.97-90.04L216.21-90.04L216.21-90.04Q208.98-89.94 202.69-87.16L202.69-87.16L202.69-87.16Q196.39-84.38 191.70-79.64L191.70-79.64L191.70-79.64Q187.01-74.90 184.33-68.55L184.33-68.55L184.33-68.55Q181.64-62.21 181.64-54.98L181.64-54.98L181.64-54.98Q181.64-47.75 184.33-41.41L184.33-41.41L184.33-41.41Q187.01-35.06 191.70-30.32L191.70-30.32L191.70-30.32Q196.39-25.59 202.69-22.80L202.69-22.80L202.69-22.80Q208.98-20.02 216.21-20.02L216.21-20.02L246.97-20.02L246.97-20.02Q254.20-20.02 260.50-22.80L260.50-22.80L260.50-22.80Q266.80-25.59 271.48-30.32L271.48-30.32L271.48-30.32Q276.17-35.06 278.91-41.41L278.91-41.41L278.91-41.41Q281.64-47.75 281.64-54.98ZM486.23-109.96L486.23-54.98L486.23-54.98Q486.23-43.65 481.93-33.64L481.93-33.64L481.93-33.64Q477.64-23.63 470.21-16.16L470.21-16.16L470.21-16.16Q462.79-8.69 452.83-4.35L452.83-4.35L452.83-4.35Q442.87 0 431.54 0L431.54 0L376.17 0L376.17 0Q364.84 0 354.88-4.35L354.88-4.35L354.88-4.35Q344.92-8.69 337.55-16.16L337.55-16.16L337.55-16.16Q330.18-23.63 325.88-33.64L325.88-33.64L325.88-33.64Q321.58-43.65 321.58-54.98L321.58-54.98L321.58-109.96L341.60-109.96L341.60-54.98L341.60-54.98Q341.60-47.75 344.29-41.46L344.29-41.46L344.29-41.46Q346.97-35.16 351.66-30.42L351.66-30.42L351.66-30.42Q356.35-25.68 362.65-22.90L362.65-22.90L362.65-22.90Q368.95-20.12 376.17-20.02L376.17-20.02L393.95-20.02L393.95-109.96L413.77-109.96L413.77-20.02L431.54-20.02L431.54-20.02Q438.77-20.12 445.07-22.90L445.07-22.90L445.07-22.90Q451.37-25.68 456.05-30.42L456.05-30.42L456.05-30.42Q460.74-35.16 463.48-41.46L463.48-41.46L463.48-41.46Q466.21-47.75 466.21-54.98L466.21-54.98L466.21-109.96L486.23-109.96ZM641.21-75L641.21-75L641.21-75Q641.21-67.68 638.48-61.33L638.48-61.33L638.48-61.33Q635.74-54.98 631.01-50.24L631.01-50.24L631.01-50.24Q626.27-45.51 619.87-42.77L619.87-42.77L619.87-42.77Q613.48-40.04 606.25-40.04L606.25-40.04L529.59-40.04L529.59-40.04Q531.74-35.64 534.96-31.93L534.96-31.93L534.96-31.93Q538.18-28.22 542.19-25.59L542.19-25.59L542.19-25.59Q546.19-22.95 550.93-21.48L550.93-21.48L550.93-21.48Q555.66-20.02 560.84-20.02L560.84-20.02L626.27-20.02L626.27 0L560.84 0L560.84 0Q549.51-0.10 539.55-4.44L539.55-4.44L539.55-4.44Q529.59-8.79 522.22-16.26L522.22-16.26L522.22-16.26Q514.84-23.73 510.55-33.69L510.55-33.69L510.55-33.69Q506.25-43.65 506.25-54.98L506.25-54.98L506.25-54.98Q506.25-66.31 510.55-76.27L510.55-76.27L510.55-76.27Q514.84-86.23 522.22-93.70L522.22-93.70L522.22-93.70Q529.59-101.17 539.55-105.52L539.55-105.52L539.55-105.52Q549.51-109.86 560.84-109.96L560.84-109.96L606.25-109.96L606.25-109.96Q613.48-109.96 619.87-107.23L619.87-107.23L619.87-107.23Q626.27-104.49 631.01-99.76L631.01-99.76L631.01-99.76Q635.74-95.02 638.48-88.67L638.48-88.67L638.48-88.67Q641.21-82.32 641.21-75ZM526.66-59.96L606.25-59.96L606.25-59.96Q609.28-59.96 612.01-61.13L612.01-61.13L612.01-61.13Q614.75-62.30 616.80-64.36L616.80-64.36L616.80-64.36Q618.85-66.41 620.02-69.14L620.02-69.14L620.02-69.14Q621.19-71.88 621.19-75L621.19-75L621.19-75Q621.19-78.03 620.02-80.76L620.02-80.76L620.02-80.76Q618.85-83.50 616.80-85.55L616.80-85.55L616.80-85.55Q614.75-87.60 612.01-88.82L612.01-88.82L612.01-88.82Q609.28-90.04 606.25-90.04L606.25-90.04L560.84-90.04L560.84-90.04Q554.20-90.04 548.39-87.70L548.39-87.70L548.39-87.70Q542.58-85.35 538.04-81.30L538.04-81.30L538.04-81.30Q533.50-77.25 530.52-71.73L530.52-71.73L530.52-71.73Q527.54-66.21 526.66-59.96L526.66-59.96ZM770.02-109.96L770.02-90.04L695.02-90.04L695.02-90.04Q691.89-90.04 689.16-88.82L689.16-88.82L689.16-88.82Q686.43-87.60 684.38-85.55L684.38-85.55L684.38-85.55Q682.32-83.50 681.15-80.76L681.15-80.76L681.15-80.76Q679.98-78.03 679.98-75L679.98-75L679.98 0L659.96 0L659.96-75L659.96-75Q659.96-82.32 662.70-88.67L662.70-88.67L662.70-88.67Q665.43-95.02 670.21-99.76L670.21-99.76L670.21-99.76Q675-104.49 681.35-107.23L681.35-107.23L681.35-107.23Q687.70-109.96 695.02-109.96L695.02-109.96L770.02-109.96ZM964.36-70.02L964.36 0L944.34 0L944.34-70.02L944.34-70.02Q944.34-80.37 940.43-89.45L940.43-89.45L940.43-89.45Q936.52-98.54 929.74-105.32L929.74-105.32L929.74-105.32Q922.95-112.11 913.82-116.06L913.82-116.06L913.82-116.06Q904.69-120.02 894.34-120.02L894.34-120.02L883.59-120.02L883.59 0L863.57 0L863.57-140.04L894.34-140.04L894.34-140.04Q903.91-140.04 912.74-137.55L912.74-137.55L912.74-137.55Q921.58-135.06 929.30-130.57L929.30-130.57L929.30-130.57Q937.01-126.07 943.36-119.82L943.36-119.82L943.36-119.82Q949.71-113.57 954.39-105.96L954.39-105.96L954.39-105.96Q958.98-113.57 965.33-119.82L965.33-119.82L965.33-119.82Q971.68-126.07 979.39-130.57L979.39-130.57L979.39-130.57Q987.11-135.06 995.95-137.55L995.95-137.55L995.95-137.55Q1004.79-140.04 1014.36-140.04L1014.36-140.04L1045.21-140.04L1045.21 0L1025.20 0L1025.20-120.02L1014.36-120.02L1014.36-120.02Q1004.00-120.02 994.92-116.06L994.92-116.06L994.92-116.06Q985.84-112.11 979.05-105.32L979.05-105.32L979.05-105.32Q972.27-98.54 968.31-89.45L968.31-89.45L968.31-89.45Q964.36-80.37 964.36-70.02L964.36-70.02ZM1203.71-109.96L1203.71 0L1128.71 0L1128.71 0Q1117.38 0 1107.42-4.35L1107.42-4.35L1107.42-4.35Q1097.46-8.69 1090.09-16.16L1090.09-16.16L1090.09-16.16Q1082.71-23.63 1078.42-33.64L1078.42-33.64L1078.42-33.64Q1074.12-43.65 1074.12-54.98L1074.12-54.98L1074.12-109.96L1094.14-109.96L1094.14-54.98L1094.14-54.98Q1094.14-47.75 1096.83-41.46L1096.83-41.46L1096.83-41.46Q1099.51-35.16 1104.20-30.42L1104.20-30.42L1104.20-30.42Q1108.89-25.68 1115.19-22.90L1115.19-22.90L1115.19-22.90Q1121.48-20.12 1128.71-20.02L1128.71-20.02L1183.69-20.02L1183.69-109.96L1203.71-109.96ZM1347.36-34.96L1347.36-34.96L1347.36-34.96Q1347.36-27.73 1344.63-21.34L1344.63-21.34L1344.63-21.34Q1341.89-14.94 1337.16-10.21L1337.16-10.21L1337.16-10.21Q1332.42-5.47 1326.03-2.73L1326.03-2.73L1326.03-2.73Q1319.63 0 1312.40 0L1312.40 0L1227.34 0L1227.34-20.02L1312.40-20.02L1312.40-20.02Q1315.43-20.02 1318.16-21.19L1318.16-21.19L1318.16-21.19Q1320.90-22.36 1322.95-24.41L1322.95-24.41L1322.95-24.41Q1325-26.46 1326.17-29.15L1326.17-29.15L1326.17-29.15Q1327.34-31.84 1327.34-34.96L1327.34-34.96L1327.34-34.96Q1327.34-37.99 1326.17-40.72L1326.17-40.72L1326.17-40.72Q1325-43.46 1322.95-45.51L1322.95-45.51L1322.95-45.51Q1320.90-47.56 1318.16-48.78L1318.16-48.78L1318.16-48.78Q1315.43-50 1312.40-50L1312.40-50L1257.32-50L1257.32-50Q1251.07-50 1245.61-52.34L1245.61-52.34L1245.61-52.34Q1240.14-54.69 1236.08-58.74L1236.08-58.74L1236.08-58.74Q1232.03-62.79 1229.69-68.26L1229.69-68.26L1229.69-68.26Q1227.34-73.73 1227.34-79.98L1227.34-79.98L1227.34-79.98Q1227.34-86.23 1229.69-91.70L1229.69-91.70L1229.69-91.70Q1232.03-97.17 1236.08-101.22L1236.08-101.22L1236.08-101.22Q1240.14-105.27 1245.61-107.62L1245.61-107.62L1245.61-107.62Q1251.07-109.96 1257.32-109.96L1257.32-109.96L1337.40-109.96L1337.40-90.04L1257.32-90.04L1257.32-90.04Q1253.13-90.04 1250.24-87.16L1250.24-87.16L1250.24-87.16Q1247.36-84.28 1247.36-79.98L1247.36-79.98L1247.36-79.98Q1247.36-75.78 1250.24-72.90L1250.24-72.90L1250.24-72.90Q1253.13-70.02 1257.32-70.02L1257.32-70.02L1312.40-70.02L1312.40-70.02Q1319.63-70.02 1326.03-67.29L1326.03-67.29L1326.03-67.29Q1332.42-64.55 1337.16-59.77L1337.16-59.77L1337.16-59.77Q1341.89-54.98 1344.63-48.63L1344.63-48.63L1344.63-48.63Q1347.36-42.29 1347.36-34.96ZM1392.87-134.96L1392.87-134.96L1392.87-134.96Q1392.87-131.84 1391.70-129.15L1391.70-129.15L1391.70-129.15Q1390.53-126.46 1388.48-124.41L1388.48-124.41L1388.48-124.41Q1386.43-122.36 1383.69-121.19L1383.69-121.19L1383.69-121.19Q1380.96-120.02 1377.93-120.02L1377.93-120.02L1377.93-120.02Q1374.80-120.02 1372.07-121.19L1372.07-121.19L1372.07-121.19Q1369.34-122.36 1367.29-124.41L1367.29-124.41L1367.29-124.41Q1365.23-126.46 1364.06-129.15L1364.06-129.15L1364.06-129.15Q1362.89-131.84 1362.89-134.96L1362.89-134.96L1362.89-134.96Q1362.89-137.99 1364.06-140.72L1364.06-140.72L1364.06-140.72Q1365.23-143.46 1367.29-145.51L1367.29-145.51L1367.29-145.51Q1369.34-147.56 1372.07-148.78L1372.07-148.78L1372.07-148.78Q1374.80-150 1377.93-150L1377.93-150L1377.93-150Q1380.96-150 1383.69-148.78L1383.69-148.78L1383.69-148.78Q1386.43-147.56 1388.48-145.51L1388.48-145.51L1388.48-145.51Q1390.53-143.46 1391.70-140.72L1391.70-140.72L1391.70-140.72Q1392.87-137.99 1392.87-134.96ZM1387.89-109.96L1387.89 0L1367.87 0L1367.87-109.96L1387.89-109.96ZM1529.79-20.02L1529.79 0L1464.36 0L1464.36 0Q1453.03-0.10 1443.07-4.44L1443.07-4.44L1443.07-4.44Q1433.11-8.79 1425.73-16.26L1425.73-16.26L1425.73-16.26Q1418.36-23.73 1414.06-33.69L1414.06-33.69L1414.06-33.69Q1409.77-43.65 1409.77-54.98L1409.77-54.98L1409.77-54.98Q1409.77-66.31 1414.06-76.32L1414.06-76.32L1414.06-76.32Q1418.36-86.33 1425.73-93.80L1425.73-93.80L1425.73-93.80Q1433.11-101.27 1443.07-105.62L1443.07-105.62L1443.07-105.62Q1453.03-109.96 1464.36-109.96L1464.36-109.96L1529.79-109.96L1529.79-90.04L1464.36-90.04L1464.36-90.04Q1457.13-89.94 1450.83-87.16L1450.83-87.16L1450.83-87.16Q1444.53-84.38 1439.84-79.64L1439.84-79.64L1439.84-79.64Q1435.16-74.90 1432.47-68.55L1432.47-68.55L1432.47-68.55Q1429.79-62.21 1429.79-54.98L1429.79-54.98L1429.79-54.98Q1429.79-47.75 1432.47-41.41L1432.47-41.41L1432.47-41.41Q1435.16-35.06 1439.84-30.32L1439.84-30.32L1439.84-30.32Q1444.53-25.59 1450.83-22.80L1450.83-22.80L1450.83-22.80Q1457.13-20.02 1464.36-20.02L1464.36-20.02L1529.79-20.02Z" fill="url(#editing-gradient-gradient)"></path></g></g><style>text {
  font-size: 64px;
  font-family: Arial Black;
  dominant-baseline: central;
  text-anchor: middle;
}</style></svg>